<svg version="1.1" xmlns="http://www.w3.org/2000/svg" xmlns:xlink="http://www.w3.org/1999/xlink" width="236.90077" height="229.68949" viewBox="0,0,236.90077,229.68949"><g transform="translate(-123.31522,-59.62991)"><g data-paper-data="{&quot;isPaintingLayer&quot;:true}" fill-rule="nonzero" stroke-linecap="round" stroke-linejoin="miter" stroke-miterlimit="10" stroke-dasharray="" stroke-dashoffset="0" style="mix-blend-mode: normal"><path d="M259.11307,224.71415c-68.20812,35.00901 -78.33989,12.31755 -78.33989,12.31755c0,0 -44.94742,-90.01395 -53.52711,-111.38745c-1.85473,-4.62045 -6.74522,-25.81468 54.40534,-50.20792c43.68278,-17.42526 57.19959,-15.21902 65.86768,-4.39118c8.097,10.11446 61.4765,106.26652 61.4765,106.26652c0,0 3.91661,19.78914 -49.88252,47.40248z" fill="#d0ab00" stroke="#aa8c00" stroke-width="6"/><path d="M259.11307,224.71415c-68.20812,35.00901 -78.33989,12.31755 -78.33989,12.31755c0,0 -44.94742,-90.01395 -53.52711,-111.38745c-1.85473,-4.62045 -6.74522,-25.81468 54.40534,-50.20792c43.68278,-17.42526 57.19959,-15.21902 65.86768,-4.39118c8.097,10.11446 61.4765,106.26652 61.4765,106.26652c0,0 3.91661,19.78914 -49.88252,47.40248z" fill="#d0ab00" stroke="#d0ab00" stroke-width="0"/><path d="M353.78563,165.54688c18.56312,33.20553 -42.05236,74.73649 -89.58004,97.48416c-46.12197,22.07487 -104.66227,37.34054 -123.83124,3.51295c-19.16897,-33.82759 79.91945,-78.16298 79.91945,-78.16298c0,0 112.77378,-59.89439 133.49183,-22.83413z" fill="#d0ab00" stroke="#aa8c00" stroke-width="6"/><path d="M353.78563,165.54688c18.56312,33.20553 -42.05236,74.73649 -89.58004,97.48416c-46.12197,22.07487 -104.66227,37.34054 -123.83124,3.51295c-19.16897,-33.82759 79.91945,-78.16298 79.91945,-78.16298c0,0 112.77378,-59.89439 133.49183,-22.83413z" fill="#d0ab00" stroke="#aa8c00" stroke-width="0"/><path d="M317.07159,187.68188c11.86599,21.22577 -26.88089,47.77337 -57.26173,62.31423c-29.48227,14.11079 -66.90263,23.86897 -79.1559,2.24556c-12.25326,-21.62341 51.08643,-49.96365 51.08643,-49.96365c0,0 72.08772,-38.28594 85.3312,-14.59613z" fill="#b39300" stroke="#aa8c00" stroke-width="0"/><path d="M313.82177,184.7538c11.4854,20.54497 -26.0187,46.24106 -55.42509,60.31553c-28.53664,13.65819 -64.75678,23.10339 -76.61703,2.17354c-11.86025,-20.92986 49.44787,-48.3611 49.44787,-48.3611c0,0 69.77555,-37.05794 82.59425,-14.12797z" fill="#997e00" stroke="#aa8c00" stroke-width="0"/><path d="M150.20071,174.91287l-14.10753,-29.50749l52.52444,-72.67852c0,0 14.59803,-5.34097 20.45889,-6.95561c9.69574,-2.67113 24.23447,-5.04477 30.99594,-1.23622c4.58512,2.58267 5.43983,3.86154 7.50966,6.44709c8.097,10.11446 -97.38141,103.93075 -97.38141,103.93075z" fill="#e0c857" stroke="#d0ab00" stroke-width="0"/></g></g></svg>