<svg version="1.1" xmlns="http://www.w3.org/2000/svg" xmlns:xlink="http://www.w3.org/1999/xlink" width="364.88263" height="297.87844" viewBox="0,0,364.88263,297.87844"><g transform="translate(-57.55869,-29.58598)"><g data-paper-data="{&quot;isPaintingLayer&quot;:true}" fill-rule="nonzero" stroke-linejoin="miter" stroke-miterlimit="10" stroke-dasharray="" stroke-dashoffset="0" style="mix-blend-mode: normal"><g stroke-linecap="round"><path d="M246.81629,172.55942c-63.84228,7.13299 -65.02855,-13.65538 -65.02855,-13.65538c0,0 -8.43125,-83.87939 -8.79381,-103.17369c-0.07838,-4.17097 2.39553,-22.2274 57.55166,-23.14437c39.40067,-0.65503 49.33224,5.09399 52.90108,16.15406c3.3337,10.33139 16.54397,101.52713 16.54397,101.52713c0,0 -2.81877,16.66611 -53.17435,22.29225z" fill="#d0ab00" stroke="#aa8c00" stroke-width="6"/><path d="M246.81629,172.55942c-63.84228,7.13299 -65.02855,-13.65538 -65.02855,-13.65538c0,0 -8.43125,-83.87939 -8.79381,-103.17369c-0.07838,-4.17097 2.39553,-22.2274 57.55166,-23.14437c39.40067,-0.65503 49.33224,5.09399 52.90108,16.15406c3.3337,10.33139 16.54397,101.52713 16.54397,101.52713c0,0 -2.81877,16.66611 -53.17435,22.29225z" fill="#d0ab00" stroke="#d0ab00" stroke-width="0"/><path d="M338.57482,154.37544c4.663,31.53222 -55.17198,46.0325 -99.16767,49.71289c-42.69445,3.57152 -93.09076,-1.88476 -98.04328,-34.08447c-4.95253,-32.1997 85.85294,-37.45215 85.85294,-37.45215c0,0 106.1537,-13.36896 111.35801,21.82374z" fill="#d0ab00" stroke="#aa8c00" stroke-width="6"/><path d="M338.57482,154.37544c4.663,31.53222 -55.17198,46.0325 -99.16767,49.71289c-42.69445,3.57152 -93.09076,-1.88476 -98.04328,-34.08447c-4.95253,-32.1997 85.85294,-37.45215 85.85294,-37.45215c0,0 106.1537,-13.36896 111.35801,21.82374z" fill="#d0ab00" stroke="#aa8c00" stroke-width="0"/><path d="M303.23182,160.79265c2.98071,20.15614 -35.26727,29.42509 -63.39038,31.77767c-27.29132,2.28301 -59.50584,-1.20478 -62.67162,-21.78761c-3.16576,-20.58282 54.87927,-23.9403 54.87927,-23.9403c0,0 67.85601,-8.54577 71.18273,13.95026z" fill="#b39300" stroke="#aa8c00" stroke-width="0"/><path d="M301.55722,157.53232c2.8851,19.50966 -34.13608,28.48129 -61.35715,30.75842c-26.41596,2.20978 -57.59724,-1.16613 -60.66147,-21.08878c-3.06423,-19.92265 53.11905,-23.17244 53.11905,-23.17244c0,0 65.67955,-8.27166 68.89957,13.50281z" fill="#997e00" stroke="#aa8c00" stroke-width="0"/><path d="M176.31856,101.15131l-2.27296,-27.3101l62.76268,-41.30533c0,0 13.02358,0.15885 18.09476,0.63752c8.38936,0.79188 20.48378,3.25742 24.64718,8.25204c2.8233,3.38697 3.11238,4.64298 3.96458,7.28398c3.3337,10.33139 -107.19624,52.44188 -107.19624,52.44188z" fill="#e0c857" stroke="#d0ab00" stroke-width="0"/></g><g stroke="none"><path d="M57.55869,228.69384l30.2386,-73.61019l334.64402,54.88389l-1.44806,70.5842l-68.59607,1.00458l-17.54929,45.90809l-199.05594,-26.83546l-3.71948,-51.33207z" fill="#463a00" stroke-width="0" stroke-linecap="butt"/><path d="M251.50717,265.64819c0.34036,-0.47652 0.85826,-0.76847 1.55371,-0.87584c0.70203,-0.11225 1.60604,-0.08607 2.71204,0.07852c1.11174,0.16545 1.98706,0.40409 2.62598,0.71589c0.63977,0.30608 1.0518,0.74521 1.2361,1.31738c0.18515,0.56644 0.27323,1.05694 0.26426,1.47149c-0.00813,0.40881 -0.07231,1.01722 -0.19256,1.82524l-4.69228,31.52959c-0.12111,0.81373 -0.23772,1.4202 -0.34985,1.8194c-0.11128,0.39346 -0.34398,0.81572 -0.69812,1.26675c-0.66878,0.87281 -2.22665,1.12714 -4.6736,0.76298c-2.44695,-0.36416 -3.68534,-1.43001 -3.71517,-3.19755c-1.73007,1.47048 -3.91314,2.00958 -6.5492,1.61727c-3.16901,-0.47162 -5.85168,-2.28251 -8.04803,-5.43268c-2.19549,-3.1559 -3.01948,-6.57336 -2.47196,-10.25239c0.54752,-3.67902 2.34039,-6.7129 5.37861,-9.10163c3.03908,-2.39446 6.12593,-3.35844 9.26054,-2.89194c2.60167,0.38718 4.49366,1.56788 5.67594,3.54208l1.65023,-11.08865c0.12025,-0.80801 0.236,-1.40875 0.34728,-1.80221c0.11785,-0.39834 0.34654,-0.8329 0.68605,-1.3037zM238.64851,293.07177c0.77532,1.08773 1.81341,1.72839 3.11424,1.92198c1.30657,0.19444 2.46043,-0.12001 3.46158,-0.94336c1.00689,-0.8225 1.59518,-1.80394 1.7649,-2.94432c0.17057,-1.14611 -0.08628,-2.27383 -0.77052,-3.38315c-0.67767,-1.11419 -1.72135,-1.77619 -3.13107,-1.98599c-1.40972,-0.2098 -2.60784,0.10686 -3.59437,0.94996c-0.98652,0.8431 -1.56635,1.84629 -1.73947,3.0096c-0.17312,1.16331 0.12511,2.2884 0.89469,3.37528z" fill="#746000" stroke-width="1" stroke-linecap="square"/><path d="M142.90479,284.2178c-0.74401,-1.25879 -1.04905,-2.33804 -0.91516,-3.23773c0.1339,-0.8997 1.06729,-1.97621 2.80019,-3.22956c1.00215,-0.71191 1.99605,-0.99452 2.9817,-0.84784c0.98566,0.14668 2.23008,1.23101 3.73328,3.25297c0.40413,0.66932 1.02085,1.34686 1.85013,2.03258c0.83587,0.68085 1.64063,1.07885 2.41425,1.19398c3.27788,0.48782 5.11596,-0.60636 5.51424,-3.28253c0.12025,-0.80801 -0.22897,-1.55116 -1.04765,-2.22946c-0.81782,-0.68403 -1.87888,-1.24904 -3.18316,-1.69501c-1.29856,-0.44513 -2.68094,-1.05502 -4.14718,-1.82969c-1.46624,-0.77467 -2.81482,-1.63141 -4.04576,-2.57021c-1.22521,-0.93796 -2.16827,-2.27616 -2.82918,-4.01461c-0.66091,-1.73845 -0.82378,-3.73374 -0.48861,-5.98585c0.46053,-3.09451 2.01405,-5.62218 4.66059,-7.58303c2.65311,-1.96572 5.97103,-2.65223 9.95378,-2.05952c2.10885,0.31385 3.99381,0.8726 5.65488,1.67626c1.66681,0.80452 2.79079,1.53704 3.37196,2.19756l1.17409,1.20272c0.937,1.18208 1.35306,2.12554 1.24816,2.8304c-0.1049,0.70486 -0.67022,1.61064 -1.69597,2.71735c-1.45951,1.58104 -2.82249,2.27732 -4.08895,2.08885c-0.73925,-0.11001 -1.60411,-0.59603 -2.5946,-1.45806c-0.09207,-0.08984 -0.26907,-0.29777 -0.531,-0.62377c-0.2562,-0.32515 -0.49429,-0.59487 -0.71426,-0.80919c-0.67102,-0.56846 -1.57959,-0.93798 -2.7257,-1.10854c-1.14038,-0.16972 -2.12972,-0.03579 -2.96803,0.40177c-0.83745,0.43183 -1.32824,1.13199 -1.47237,2.10045c-0.14413,0.96846 0.18601,1.82008 0.99043,2.55483c0.811,0.72988 1.86834,1.30019 3.17201,1.71093c1.31025,0.40587 2.72336,0.94711 4.23933,1.62375c1.5217,0.67749 2.90283,1.43363 4.14338,2.26843c1.24714,0.82993 2.20086,2.0965 2.86115,3.79972c0.66687,1.69834 0.82975,3.69362 0.48862,5.98585c-0.34028,2.2865 -1.0985,4.23257 -2.27465,5.8382c-1.17042,1.6065 -2.56566,2.77536 -4.18571,3.50661c-3.13099,1.43772 -6.31537,1.91566 -9.55314,1.43381c-1.65613,-0.24647 -3.19359,-0.68029 -4.61238,-1.30145c-1.41793,-0.6269 -2.541,-1.30656 -3.3692,-2.03899c-1.69443,-1.40609 -2.8328,-2.69137 -3.41513,-3.8558z" fill="#746000" stroke-width="1" stroke-linecap="square"/><path d="M273.29618,294.98597c0.62853,-4.22343 2.62553,-7.48758 5.99102,-9.79246c3.36633,-2.31061 6.94918,-3.1832 10.74855,-2.61777c3.80509,0.56628 6.96555,2.43363 9.48133,5.60206c2.51664,3.16269 3.4607,6.85575 2.83215,11.07919c-0.43494,2.92258 -1.58101,5.4084 -3.43818,7.45744c-1.85059,2.04415 -3.93871,3.44086 -6.26433,4.1901c-2.3199,0.75009 -4.64316,0.95202 -6.96977,0.60577c-2.32088,-0.3454 -4.48813,-1.25076 -6.50177,-2.71607c-2.01278,-1.47104 -3.60071,-3.43531 -4.76377,-5.89283c-1.16308,-2.45751 -1.53482,-5.09599 -1.11522,-7.91543zM283.76178,300.40942c1.001,1.02759 2.08314,1.62795 3.24645,1.80108c1.16331,0.17312 2.38899,-0.09257 3.67704,-0.79707c1.29464,-0.70938 2.07032,-1.92653 2.32702,-3.65143c0.25671,-1.7249 -0.09953,-3.08999 -1.06871,-4.09527c-0.96259,-1.01016 -2.07711,-1.60949 -3.34356,-1.79796c-1.26646,-0.18848 -2.51262,0.07709 -3.73849,0.79671c-1.21929,0.71474 -1.95601,1.92597 -2.21015,3.63368c-0.25414,1.70771 0.11599,3.07781 1.1104,4.11027z" fill="#746000" stroke-width="1" stroke-linecap="square"/><path d="M207.33334,299.26239c-3.55295,-0.52876 -6.30092,-2.31422 -8.24389,-5.35639c-1.93724,-3.04132 -2.6176,-6.49892 -2.04109,-10.37278l1.37519,-9.24055c0.12622,-0.84812 0.24368,-1.46033 0.3524,-1.8366c0.10957,-0.38201 0.32679,-0.81827 0.65166,-1.30882c0.6344,-0.87793 2.07766,-1.14932 4.32977,-0.81415c2.46987,0.36757 3.81462,1.25009 4.03424,2.64757c0.1276,0.59888 0.09972,1.51436 -0.08363,2.74643l-1.37519,9.24055c-0.21491,1.4441 0.02968,2.63443 0.73377,3.57097c0.71068,0.93167 1.75942,1.5007 3.14622,1.70708c1.39253,0.20724 2.58127,-0.04638 3.56622,-0.76084c0.99153,-0.71935 1.58964,-1.76668 1.79433,-3.14202l1.39182,-9.35229c0.12025,-0.80801 0.236,-1.40875 0.34728,-1.80221c0.11785,-0.39834 0.35642,-0.84023 0.71568,-1.32565c0.5949,-0.84867 2.0184,-1.10542 4.27052,-0.77025c2.21773,0.33004 3.50222,1.00737 3.85349,2.03199c0.16795,0.56388 0.24744,1.0531 0.23847,1.46765c-0.00239,0.40966 -0.06414,1.02137 -0.18524,1.83512l-2.78236,18.69597c-0.11513,0.77362 -0.23162,1.35961 -0.34949,1.75796c-0.11128,0.39346 -0.34398,0.81572 -0.69812,1.26675c-0.66367,0.83843 -2.08718,1.09518 -4.27053,0.77025c-2.14896,-0.31981 -3.40674,-0.94045 -3.77336,-1.86191c-0.26087,-0.648 -0.3282,-1.39606 -0.20198,-2.24418c-0.18079,0.23083 -0.55171,0.53879 -1.11276,0.92389c-0.5602,0.37938 -1.09341,0.6954 -1.5996,0.94808c-1.31282,0.59539 -2.6741,0.78818 -4.08381,0.57838z" fill="#746000" stroke-width="1" stroke-linecap="square"/><path d="M190.16333,277.92218l-3.40635,-0.7266l-1.0848,7.28928c-0.14157,0.95127 -0.09492,1.66112 0.13996,2.12953c0.24146,0.46353 0.7748,0.75671 1.6,0.87951c0.83094,0.12366 1.45989,0.24655 1.88689,0.36867c0.43358,0.11725 0.87589,0.35294 1.32693,0.70707c0.74551,0.57955 0.97712,1.81773 0.69484,3.71455c-0.33089,2.22346 -1.02585,3.50826 -2.08485,3.8544c-0.56961,0.1671 -1.06169,0.24616 -1.47624,0.23719c-0.40881,-0.00813 -1.00004,-0.06975 -1.77366,-0.18488c-3.66183,-0.54496 -6.32079,-1.78708 -7.97687,-3.72635c-1.65608,-1.93927 -2.19074,-4.88022 -1.60399,-8.82286l1.16284,-7.81363c-0.6801,0.00422 -1.40983,-0.05166 -2.18919,-0.16764c-0.77362,-0.11513 -1.3711,-0.50864 -1.79243,-1.18052c-0.42132,-0.67189 -0.52453,-1.72988 -0.30962,-3.17398c0.21491,-1.4441 0.4598,-2.47958 0.73468,-3.10643c0.27487,-0.62685 0.59079,-1.05721 0.94776,-1.2911c0.62982,-0.37487 1.3688,-0.4992 2.21692,-0.37297l1.70438,0.4733l0.80977,-5.44118c0.12025,-0.80801 0.23472,-1.40015 0.34344,-1.77643c0.1153,-0.38115 0.34747,-0.78005 0.69649,-1.19671c0.58979,-0.81428 2.01073,-1.05385 4.26284,-0.71868c2.39537,0.35648 3.72506,1.22212 3.98907,2.59692c0.08834,0.58718 0.04084,1.49681 -0.14252,2.72888l-0.77011,5.17471c1.57431,0.08786 2.75686,0.19062 3.54768,0.30831c0.79083,0.11769 1.3854,0.23546 1.78374,0.35332c0.39919,0.11213 0.8415,0.34782 1.32693,0.70707c0.84293,0.59405 1.09681,2.01713 0.76165,4.26923c-0.33004,2.21773 -1.00452,3.50265 -2.0234,3.85476c-0.56961,0.1671 -1.06213,0.24903 -1.47752,0.24578c-0.40881,-0.00813 -1.01722,-0.07231 -1.82524,-0.19256z" fill="#746000" stroke-width="1" stroke-linecap="square"/><path d="M304.28347,311.25686c-0.6025,-0.51726 -0.83551,-1.23433 -0.69906,-2.15122c0.13645,-0.91689 1.0113,-2.21007 2.62455,-3.87952c0.47838,-0.53799 1.14735,-0.74301 2.00694,-0.61509c0.86531,0.12877 1.97282,0.73583 3.32253,1.82118c1.35056,1.07961 2.62469,1.70855 3.82238,1.88679c2.14323,0.31896 3.27753,0.05724 3.4029,-0.78515c0.09978,-0.67047 -1.00451,-1.33856 -3.31286,-2.00426c-2.16998,-0.65095 -4.24728,-1.80651 -6.23191,-3.46667c-0.92538,-0.7879 -1.62267,-1.90794 -2.09188,-3.36014c-0.46835,-1.45792 -0.56352,-3.12097 -0.2855,-4.98914c0.82725,-5.55866 5.0603,-7.76956 12.69914,-6.63274c2.50426,0.37269 4.9853,1.35402 7.44312,2.94402c1.15422,0.74581 1.66823,1.54278 1.54201,2.3909c-0.12537,0.8424 -0.66941,1.82163 -1.63212,2.93771c-0.95698,1.11694 -1.83947,1.61529 -2.64749,1.49504c-0.42406,-0.06311 -1.16992,-0.44356 -2.23757,-1.14133c-1.06192,-0.69693 -2.26336,-1.14516 -3.60431,-1.34473c-2.07446,-0.30872 -3.16926,-0.07627 -3.2844,0.69735c-0.15692,1.05442 0.93885,1.91746 3.28732,2.58913c2.28421,0.59181 4.43655,1.59746 6.457,3.01692c0.9467,0.64463 1.67348,1.62556 2.18034,2.94278c0.50686,1.31722 0.62384,2.89272 0.35094,4.7265c-0.27205,1.82805 -0.84743,3.33273 -1.72613,4.51404c-0.8787,1.18131 -1.98143,1.99833 -3.30816,2.45106c-2.41415,0.75364 -5.32034,0.87761 -8.71857,0.37188c-3.39823,-0.50573 -6.51796,-1.9775 -9.3592,-4.41531z" fill="#746000" stroke-width="1" stroke-linecap="square"/><path d="M262.00258,283.80732c0.12111,-0.81373 0.23729,-1.41735 0.34856,-1.81081c0.11213,-0.39919 0.33063,-0.84406 0.6555,-1.3346c0.62928,-0.84355 2.06997,-1.09774 4.32209,-0.76258c1.69052,0.25158 2.84344,0.73068 3.45875,1.43729c0.52836,0.58238 0.73384,1.38614 0.61642,2.4113c-0.01764,0.35468 -0.07635,0.86726 -0.17613,1.53774l-2.75038,18.48108c-0.12111,0.81373 -0.23772,1.4202 -0.34985,1.8194c-0.11128,0.39346 -0.3494,0.83248 -0.71439,1.31705c-0.58916,0.84952 -2.01267,1.10627 -4.27052,0.77025c-2.21773,-0.33004 -3.50222,-1.00737 -3.85349,-2.03199c-0.16795,-0.56388 -0.24915,-1.04164 -0.24358,-1.43326c0.00641,-0.39735 0.07274,-1.02009 0.19895,-1.86821z" fill="#746000" stroke-width="1" stroke-linecap="square"/><path d="M272.14273,275.3001c-0.33951,0.4708 -0.86028,0.76231 -1.56231,0.87456c-0.6963,0.1131 -1.60032,0.08693 -2.71204,-0.07852c-1.106,-0.1646 -1.97846,-0.4028 -2.61738,-0.71462c-0.63892,-0.31181 -1.05095,-0.75094 -1.2361,-1.31738c-0.18515,-0.56644 -0.27366,-1.05407 -0.26553,-1.46288c0.00898,-0.41454 0.07359,-1.02583 0.19383,-1.83383c0.12111,-0.81373 0.23729,-1.41735 0.34856,-1.81081c0.11213,-0.39919 0.32808,-0.82687 0.64783,-1.28302c0.6344,-0.87793 2.07765,-1.14932 4.32976,-0.81415c2.22346,0.33089 3.49077,1.00567 3.80191,2.02432c0.20806,0.56986 0.30761,1.06205 0.29863,1.4766c-0.00813,0.40881 -0.07274,1.02009 -0.19383,1.83383c-0.12025,0.80801 -0.23644,1.41161 -0.34856,1.81081c-0.11128,0.39346 -0.33953,0.82517 -0.68477,1.29511z" fill="#746000" stroke-width="1" stroke-linecap="square"/><path d="M320.6034,204.508c0.52016,-0.70284 1.28848,-1.13552 2.30494,-1.29804c1.01646,-0.16252 2.26314,-0.13389 3.74004,0.08591c1.4769,0.21979 2.62767,0.52251 3.4523,0.90815c0.83293,0.38686 1.45102,0.79264 1.85427,1.21734c0.40325,0.42469 0.68409,0.98806 0.84252,1.69013c0.12879,0.90119 0.06046,2.24373 -0.20503,4.02763l-6.31601,42.44018c-0.17411,1.1699 -0.34649,2.04323 -0.51713,2.61999c-0.16235,0.57799 -0.5036,1.2184 -1.02376,1.92124c-0.91854,1.27115 -3.00821,1.66407 -6.269,1.1788c-3.5678,-0.53097 -5.51855,-1.78386 -5.85224,-3.75871c-0.17734,-0.91689 -0.13327,-2.2673 0.13221,-4.05119l2.30969,-15.51991l-20.26176,-3.01539l-2.32081,15.59459c-0.17411,1.1699 -0.34234,2.04385 -0.50469,2.62184c-0.16235,0.57799 -0.5036,1.2184 -1.02376,1.92124c-0.91854,1.27115 -3.01235,1.66346 -6.28144,1.17694c-3.5678,-0.53097 -5.5144,-1.78325 -5.83979,-3.75685c-0.17734,-0.91689 -0.13327,-2.2673 0.13221,-4.05119l6.31601,-42.44019c0.17411,-1.1699 0.34233,-2.04384 0.50468,-2.62184c0.16235,-0.57799 0.5036,-1.2184 1.02376,-1.92124c0.91854,-1.27115 3.01235,-1.66346 6.28145,-1.17694c3.5678,0.53097 5.54281,1.79172 5.92505,3.78226c0.1205,0.89995 0.048,2.24187 -0.21748,4.02578l-2.32266,15.60703l20.26176,3.01539l2.33377,-15.68172c0.17411,-1.1699 0.34233,-2.04384 0.50468,-2.62184c0.17064,-0.57676 0.51605,-1.21655 1.03622,-1.91938z" fill="#746000" stroke-width="1" stroke-linecap="square"/><path d="M79.36533,215.73957c-1.07723,-1.82258 -1.51892,-3.38521 -1.32505,-4.68787c0.19386,-1.30266 1.54531,-2.86134 4.05435,-4.67602c1.45099,-1.03077 2.89004,-1.43995 4.31716,-1.22756c1.42712,0.21239 3.2289,1.78236 5.40536,4.70991c0.58514,0.9691 1.47806,1.95009 2.67878,2.94295c1.21024,0.9858 2.37543,1.56205 3.49555,1.72874c4.746,0.70631 7.40732,-0.87793 7.98397,-4.75273c0.17411,-1.1699 -0.33151,-2.24591 -1.51688,-3.228c-1.18412,-0.9904 -2.7204,-1.80845 -4.60886,-2.45418c-1.88015,-0.64449 -3.88169,-1.52755 -6.00463,-2.64918c-2.12294,-1.12163 -4.07553,-2.36209 -5.85779,-3.72137c-1.77396,-1.35804 -3.1394,-3.29561 -4.09631,-5.81269c-0.95692,-2.51708 -1.19274,-5.40602 -0.70745,-8.66682c0.66679,-4.48049 2.91613,-8.14027 6.74799,-10.97936c3.84139,-2.84614 8.64537,-3.84013 14.41193,-2.98194c3.05338,0.4544 5.78258,1.26342 8.18762,2.42704c2.41334,1.16485 4.04074,2.22545 4.88221,3.18181l1.69994,1.74139c1.35667,1.71151 1.95907,3.07755 1.80719,4.09811c-0.15188,1.02056 -0.97041,2.33202 -2.45558,3.93441c-2.1132,2.28917 -4.08664,3.29731 -5.92033,3.02442c-1.07033,-0.15929 -2.32256,-0.86299 -3.75669,-2.1111c-0.1333,-0.13009 -0.38957,-0.43113 -0.76881,-0.90315c-0.37094,-0.47077 -0.71567,-0.86132 -1.03418,-1.17163c-0.97156,-0.82307 -2.28705,-1.35808 -3.94649,-1.60504c-1.65114,-0.24572 -3.0836,-0.05182 -4.29738,0.58172c-1.21254,0.62524 -1.92315,1.63897 -2.13182,3.0412c-0.20868,1.40223 0.26933,2.63526 1.43404,3.69909c1.17424,1.05677 2.70514,1.88252 4.5927,2.47722c1.89709,0.58765 3.94311,1.37131 6.13806,2.351c2.20324,0.98093 4.20295,2.07574 5.99914,3.28443c1.80571,1.20164 3.18659,3.03548 4.14261,5.50154c0.96556,2.459 1.20138,5.34794 0.70745,8.66682c-0.49269,3.31058 -1.59049,6.12827 -3.29342,8.45305c-1.69463,2.32601 -3.71478,4.01841 -6.06043,5.07716c-4.53332,2.08166 -9.14394,2.77366 -13.83185,2.07599c-2.39789,-0.35686 -4.62395,-0.98498 -6.6782,-1.88436c-2.05301,-0.90768 -3.67909,-1.89176 -4.87821,-2.95224c-2.45333,-2.03586 -4.10157,-3.89679 -4.9447,-5.58275z" fill="#746000" stroke-width="1" stroke-linecap="square"/><path d="M362.8912,229.1711c0.73177,-2.80855 2.95623,-3.93623 6.67337,-3.38303c1.99132,0.29635 3.44538,0.66964 4.36217,1.11988c0.92508,0.45147 1.52166,1.08728 1.78974,1.90741c0.27637,0.82138 0.40805,1.53217 0.39506,2.13238c-0.01176,0.59191 -0.10532,1.47698 -0.28066,2.65518l-3.98224,26.75847c-0.17411,1.1699 -0.34234,2.04385 -0.50468,2.62185c-0.16235,0.57799 -0.47871,1.22211 -0.94909,1.93235c-0.91113,1.22136 -2.75647,1.62521 -5.53603,1.21155c-2.77956,-0.41366 -4.59104,-1.0352 -5.43443,-1.86465c-0.8351,-0.8282 -1.23268,-1.91781 -1.19276,-3.26883c-2.28601,2.42459 -5.63607,3.30843 -10.05018,2.65152c-4.40582,-0.65568 -8.19689,-3.27651 -11.37325,-7.86249c-3.16682,-4.59304 -4.35385,-9.55296 -3.56111,-14.87976c0.79274,-5.32681 3.38261,-9.70768 7.76961,-13.14263c4.39653,-3.44201 8.86408,-4.8253 13.40265,-4.14986c1.73412,0.25807 3.26904,0.80031 4.60479,1.62669c1.33574,0.82638 2.24144,1.55058 2.71709,2.17264c0.48518,0.61498 0.8685,1.2021 1.14996,1.76132zM346.60968,243.00607c-0.25067,1.68433 0.18299,3.30088 1.30097,4.84966c1.12628,1.55001 2.63115,2.46516 4.51461,2.74546c1.89176,0.28154 3.56243,-0.17376 5.01197,-1.36587c1.45785,-1.19088 2.31026,-2.61604 2.55723,-4.27548c0.24696,-1.65944 -0.12491,-3.29224 -1.11562,-4.8984c-0.98241,-1.60493 -2.48173,-2.55742 -4.49796,-2.85748c-2.00792,-0.29883 -3.74452,0.1721 -5.20978,1.41276c-1.45697,1.24189 -2.31078,2.70501 -2.56144,4.38935z" fill="#746000" stroke-width="1" stroke-linecap="square"/><path d="M150.24224,193.30085c5.09448,0.75817 9.04603,3.32655 11.85463,7.70514c2.8169,4.37983 3.80799,9.37419 2.97327,14.9831l-2.00223,13.45391c-0.17534,1.1782 -0.34418,2.0563 -0.50653,2.63429c-0.1611,0.56969 -0.50175,1.20596 -1.02191,1.9088c-0.86135,1.22876 -2.92242,1.60051 -6.18322,1.11523c-3.11145,-0.46305 -4.95007,-1.41515 -5.51584,-2.8563c-0.29296,-0.82385 -0.43585,-1.5448 -0.42869,-2.16283c0.0167,-0.62511 0.11642,-1.55166 0.29918,-2.77964l1.99111,-13.37924c0.31117,-2.09089 -0.03115,-3.80835 -1.02694,-5.15236c-0.99456,-1.3523 -2.40038,-2.16368 -4.21747,-2.4341c-1.80879,-0.26919 -3.48397,0.0455 -5.02553,0.94405c-1.53203,0.89149 -2.50425,2.01046 -2.91666,3.35693l-2.20598,14.82294c-0.17534,1.1782 -0.34418,2.0563 -0.50653,2.63429c-0.1611,0.56969 -0.5059,1.20534 -1.03436,1.90694c-0.85305,1.23 -2.91412,1.60174 -6.18321,1.11523c-3.21101,-0.47787 -5.07081,-1.45856 -5.5794,-2.9421c-0.24318,-0.81644 -0.36074,-1.50817 -0.35268,-2.0752c0.0093,-0.57532 0.10532,-1.47698 0.28807,-2.70496l6.80499,-45.72588c0.17411,-1.1699 0.34172,-2.03971 0.50282,-2.60939c0.16235,-0.57799 0.47501,-1.19721 0.93798,-1.85768c0.91854,-1.27115 3.00821,-1.66408 6.269,-1.1788c3.21932,0.4791 5.05423,1.4561 5.50472,2.93098c0.30126,0.82508 0.4454,1.53773 0.43239,2.13794c-0.01176,0.59191 -0.1047,1.47282 -0.2788,2.64274l-2.51529,16.90141c3.0103,-2.73237 6.22466,-3.84418 9.6431,-3.33544z" fill="#746000" stroke-width="1" stroke-linecap="square"/><path d="M278.93762,217.69472c-0.13706,0.92099 -0.46938,1.75779 -0.99695,2.51041c-0.52757,0.75262 -0.79507,1.15382 -0.80247,1.20361l-26.70751,41.83528c-0.55103,0.91027 -1.00527,1.59748 -1.36269,2.06162c-0.35743,0.46414 -0.87709,0.87871 -1.559,1.24368c-0.67485,0.3745 -1.47277,0.49323 -2.39376,0.35616c-0.92099,-0.13706 -2.21663,-0.72001 -3.88692,-1.74883c-2.80602,-1.77454 -4.07259,-3.57867 -3.79969,-5.41235c0.18275,-1.22798 3.4991,-6.70079 9.94907,-16.41844l-11.40938,-27.8787c-0.76989,-1.83622 -1.09433,-3.16088 -0.97333,-3.97401c0.24326,-1.63455 1.86385,-3.06412 4.86178,-4.28871c1.88476,-0.75418 3.30837,-1.05966 4.27086,-0.91642c0.97078,0.14447 1.7329,0.46567 2.28639,0.96362c0.55348,0.49793 0.93503,0.98301 1.14463,1.45522c0.2179,0.47344 1.26697,3.05512 3.14722,7.74504c1.88979,4.68287 3.70309,9.05327 5.43993,13.11122c0.37822,-0.77485 2.22355,-3.71451 5.53597,-8.81899c3.31365,-5.11277 5.08415,-7.83459 5.31149,-8.16544c0.23563,-0.32961 0.59502,-0.72138 1.07814,-1.1753c0.7922,-0.76412 1.78569,-1.05728 2.98048,-0.87946c1.2031,0.17905 2.56467,0.74636 4.08473,1.70194c2.81432,1.77578 4.08132,3.6054 3.80102,5.48887z" fill="#746000" stroke-width="1" stroke-linecap="square"/><path d="M216.10074,202.94936c5.09448,0.75817 9.04833,3.3396 11.86152,7.74432c2.8132,4.40472 3.80243,9.41153 2.96771,15.02044l-2.00223,13.45391c-0.17534,1.1782 -0.34834,2.05567 -0.51898,2.63243c-0.1611,0.56969 -0.47314,1.18477 -0.93612,1.84524c-0.91854,1.27115 -3.00821,1.66407 -6.269,1.1788c-3.61758,-0.53838 -5.56832,-1.79127 -5.85224,-3.75871c-0.17734,-0.91689 -0.13697,-2.2424 0.1211,-3.97651l2.00223,-13.45391c0.31117,-2.09089 -0.04774,-3.81082 -1.07673,-5.15977c-1.01946,-1.35601 -2.5373,-2.18405 -4.55351,-2.48411c-2.00792,-0.29883 -3.7297,0.07253 -5.16533,1.11406c-1.4261,1.03447 -2.28732,2.54737 -2.58368,4.53869l-2.01334,13.52859c-0.17534,1.1782 -0.34418,2.0563 -0.50653,2.63429c-0.1611,0.56969 -0.50219,1.18045 -1.02325,1.83227c-0.86046,1.27979 -2.92524,1.67642 -6.19433,1.18991c-3.21101,-0.47787 -5.07081,-1.45856 -5.5794,-2.94209c-0.24318,-0.81644 -0.35827,-1.52477 -0.34528,-2.12498c0.013,-0.60022 0.10655,-1.48528 0.28066,-2.65518l4.02854,-27.06962c0.1667,-1.12013 0.3306,-1.96503 0.49171,-2.53472c0.16235,-0.57799 0.4999,-1.19351 1.01265,-1.84656c0.90372,-1.17158 2.96109,-1.51842 6.1721,-1.04056c3.11145,0.46305 4.9369,1.33262 5.47635,2.60872c0.38478,0.94776 0.4864,2.03149 0.30488,3.25118c0.25223,-0.32715 0.7839,-0.76537 1.59501,-1.31465c0.81235,-0.55759 1.58127,-0.99441 2.30678,-1.31048c1.90823,-0.91183 3.90779,-1.21216 5.99868,-0.90099z" fill="#746000" stroke-width="1" stroke-linecap="square"/><path d="M404.33696,244.80387l-4.93201,-1.05203l-1.57066,10.55404c-0.20498,1.37733 -0.13743,2.4051 0.20266,3.08331c0.34961,0.67114 1.12181,1.09562 2.31661,1.27343c1.2031,0.17905 2.11376,0.35698 2.732,0.53379c0.62778,0.16975 1.26818,0.51101 1.92124,1.02376c1.07942,0.83912 1.41476,2.63186 1.00604,5.37824c-0.4791,3.21932 -1.48531,5.07956 -3.01863,5.58073c-0.82474,0.24194 -1.53721,0.35642 -2.13742,0.34342c-0.59191,-0.01176 -1.44793,-0.10099 -2.56805,-0.26768c-5.30192,-0.78904 -9.15178,-2.58748 -11.54959,-5.39532c-2.39781,-2.80785 -3.17194,-7.066 -2.3224,-12.77448l1.68365,-11.31323c-0.9847,0.00612 -2.04127,-0.0748 -3.16968,-0.24273c-1.12013,-0.1667 -1.9852,-0.73645 -2.59523,-1.70925c-0.61004,-0.97281 -0.75946,-2.50466 -0.4483,-4.59555c0.31117,-2.09089 0.66574,-3.59014 1.06372,-4.49775c0.39798,-0.9076 0.8554,-1.53073 1.37225,-1.86937c0.91191,-0.54277 1.98186,-0.72277 3.20985,-0.54002l2.46775,0.68528l1.17244,-7.87819c0.17411,-1.1699 0.33987,-2.02726 0.49727,-2.57206c0.16693,-0.55187 0.50309,-1.12943 1.00843,-1.7327c0.85394,-1.17899 2.91131,-1.52584 6.1721,-1.04056c3.46823,0.51614 5.39347,1.7695 5.77571,3.76004c0.1279,0.85017 0.05911,2.1672 -0.20636,3.9511l-1.11503,7.49238c2.27941,0.1272 3.99162,0.27601 5.13664,0.44641c1.14501,0.1704 2.0059,0.34092 2.58265,0.51157c0.57799,0.16235 1.2184,0.5036 1.92124,1.02376c1.22047,0.86012 1.58807,2.92056 1.10279,6.18136c-0.47787,3.21101 -1.45442,5.07144 -2.92965,5.58125c-0.82474,0.24194 -1.53783,0.36056 -2.13928,0.35586c-0.59191,-0.01176 -1.47282,-0.1047 -2.64274,-0.2788z" fill="#746000" stroke-width="1" stroke-linecap="square"/><path d="M173.19718,203.44668c0.17534,-1.1782 0.34357,-2.05215 0.50468,-2.62185c0.16235,-0.57799 0.47871,-1.22211 0.94909,-1.93234c0.91113,-1.22136 2.99709,-1.5894 6.2579,-1.10412c2.44767,0.36427 4.11696,1.05794 5.00787,2.08103c0.76501,0.84322 1.06251,2.00698 0.8925,3.49129c-0.02555,0.51353 -0.11054,1.25569 -0.25502,2.22646l-3.98224,26.75847c-0.17534,1.1782 -0.34418,2.0563 -0.50653,2.63429c-0.1611,0.56969 -0.5059,1.20534 -1.03436,1.90694c-0.85305,1.23 -2.91412,1.60174 -6.18322,1.11523c-3.21101,-0.47787 -5.07081,-1.45856 -5.5794,-2.94209c-0.24318,-0.81644 -0.36074,-1.50817 -0.35268,-2.0752c0.0093,-0.57532 0.10532,-1.47698 0.28807,-2.70496z" fill="#746000" stroke-width="1" stroke-linecap="square"/><path d="M187.87895,191.1292c-0.49157,0.68165 -1.24558,1.10374 -2.26204,1.26626c-1.00816,0.16376 -2.31707,0.12587 -3.92673,-0.11368c-1.60135,-0.23832 -2.86458,-0.58321 -3.78967,-1.03468c-0.92508,-0.45147 -1.52166,-1.08728 -1.78974,-1.90741c-0.26807,-0.82014 -0.39622,-1.52618 -0.38446,-2.11809c0.013,-0.60022 0.10655,-1.48528 0.28066,-2.65518c0.17534,-1.1782 0.34357,-2.05215 0.50468,-2.62184c0.16235,-0.57799 0.47501,-1.19721 0.93798,-1.85768c0.91854,-1.27115 3.00821,-1.66408 6.269,-1.1788c3.21932,0.4791 5.05423,1.4561 5.50472,2.93098c0.30126,0.82508 0.4454,1.53773 0.43239,2.13794c-0.01176,0.59191 -0.10532,1.47698 -0.28066,2.65518c-0.17411,1.1699 -0.34234,2.04385 -0.50468,2.62185c-0.1611,0.56969 -0.49159,1.19474 -0.99146,1.87516z" fill="#746000" stroke-width="1" stroke-linecap="square"/></g></g></g></svg>