<svg version="1.1" xmlns="http://www.w3.org/2000/svg" xmlns:xlink="http://www.w3.org/1999/xlink" width="364.66831" height="160.61162" viewBox="0,0,364.66831,160.61162"><g transform="translate(-60.36205,-103.30418)"><g data-paper-data="{&quot;isPaintingLayer&quot;:true}" fill-rule="nonzero" stroke="none" stroke-linejoin="miter" stroke-miterlimit="10" stroke-dasharray="" stroke-dashoffset="0" style="mix-blend-mode: normal"><g><path d="M60.36205,214.25346l10.51435,-78.88144l337.59519,-32.06784l16.55876,68.62969l-66.08295,18.42483l-5.29107,48.86241l-199.33284,24.6947l-16.6578,-48.69634z" fill="#463a00" stroke-width="0" stroke-linecap="butt"/><path d="M257.33013,200.64416c0.20791,-0.54744 0.63449,-0.96155 1.27973,-1.24234c0.65037,-0.28718 1.53129,-0.49187 2.64276,-0.6141c1.11725,-0.12286 2.02448,-0.11479 2.72171,0.02419c0.69659,0.13323 1.20679,0.45307 1.53061,0.95952c0.32318,0.50069 0.53316,0.95264 0.62996,1.35583c0.09615,0.39742 0.18889,1.00214 0.27818,1.81416l3.48441,31.68582c0.08992,0.81776 0.13145,1.43395 0.12458,1.84854c-0.00751,0.40882 -0.12511,0.8764 -0.35284,1.40269c-0.4247,1.01425 -1.86659,1.65659 -4.32566,1.927c-2.45908,0.27042 -3.9279,-0.44526 -4.40647,-2.14704c-1.29899,1.86228 -3.27305,2.93909 -5.92217,3.2304c-3.18471,0.35021 -6.23985,-0.71851 -9.16544,-3.20618c-2.92621,-2.49343 -4.59261,-5.58876 -4.99918,-9.28602c-0.40657,-3.69725 0.55536,-7.08746 2.88582,-10.1706c2.32983,-3.08891 5.06982,-4.80657 8.21996,-5.15298c2.61456,-0.28752 4.7447,0.37293 6.39038,1.98135l-1.22543,-11.1436c-0.08929,-0.81201 -0.1302,-1.42243 -0.1227,-1.83126c0.01262,-0.41522 0.12322,-0.89366 0.33176,-1.43535zM251.8722,230.43692c1.02656,0.85466 2.19349,1.21011 3.50077,1.06635c1.31304,-0.1444 2.34892,-0.74208 3.10763,-1.79306c0.76448,-1.05162 1.08369,-2.15044 0.95768,-3.29648c-0.12666,-1.15179 -0.66198,-2.17704 -1.60596,-3.07576c-0.93886,-0.9051 -2.11663,-1.27976 -3.53333,-1.12397c-1.41671,0.15579 -2.49483,0.76687 -3.23437,1.83323c-0.73954,1.06636 -1.04504,2.18406 -0.91647,3.35314c0.12857,1.16907 0.70324,2.18126 1.72404,3.03656z" fill="#746000" stroke-width="1" stroke-linecap="square"/><path d="M157.02667,246.23499c-1.03981,-1.02806 -1.60941,-1.99418 -1.70884,-2.89833c-0.09942,-0.90416 0.52935,-2.18273 1.88632,-3.83574c0.78803,-0.94346 1.67732,-1.46966 2.66785,-1.57859c0.99054,-0.10893 2.4699,0.62308 4.43809,2.19603c0.56113,0.54447 1.32994,1.04279 2.3064,1.49495c0.98159,0.44577 1.86113,0.62591 2.63859,0.54041c3.29412,-0.36224 4.79331,-1.88809 4.49757,-4.57752c-0.08929,-0.81201 -0.61611,-1.44185 -1.58043,-1.88953c-0.96495,-0.45344 -2.13485,-0.72988 -3.50967,-0.82932c-1.36908,-0.10008 -2.86114,-0.33817 -4.47623,-0.71428c-1.61509,-0.37611 -3.13727,-0.86153 -4.56657,-1.45624c-1.42354,-0.59535 -2.67605,-1.64956 -3.75753,-3.16264c-1.08148,-1.51308 -1.74667,-3.40126 -1.99555,-5.66453c-0.34198,-3.10984 0.51728,-5.9496 2.57781,-8.51929c2.06565,-2.57607 5.0997,-4.08419 9.10218,-4.52434c2.1193,-0.23305 4.08439,-0.17229 5.89528,0.18229c1.81665,0.35395 3.09002,0.77638 3.82013,1.26729l1.44147,0.86441c1.20693,0.90477 1.84934,1.71132 1.92724,2.41967c0.07789,0.70835 -0.23836,1.72816 -0.94876,3.05944c-1.0092,1.90036 -2.15017,2.92052 -3.4229,3.06048c-0.74291,0.0817 -1.70297,-0.16827 -2.88019,-0.74992c-0.1119,-0.06346 -0.33598,-0.21951 -0.67223,-0.46814c-0.3305,-0.24926 -0.62938,-0.44953 -0.89664,-0.60083c-0.79357,-0.37902 -1.76626,-0.50521 -2.91805,-0.37854c-1.14603,0.12602 -2.06874,0.50727 -2.76813,1.14372c-0.70002,0.6307 -0.99651,1.43269 -0.88948,2.40595c0.10702,0.97326 0.64298,1.71285 1.60788,2.21875c0.97002,0.49951 2.13767,0.78203 3.50294,0.84755c1.3704,0.05914 2.87471,0.22302 4.51295,0.49167c1.644,0.26802 3.17206,0.64786 4.58419,1.13955c1.41726,0.4853 2.66185,1.46753 3.73377,2.94669c1.07704,1.47277 1.74223,3.36094 1.99555,5.66453c0.25269,2.29783 0.01457,4.37277 -0.71434,6.22482c-0.72315,1.85143 -1.77507,3.33682 -3.15575,4.4562c-2.66214,2.18704 -5.62012,3.45947 -8.87393,3.81729c-1.66434,0.18302 -3.26158,0.15466 -4.79172,-0.08506c-1.53077,-0.2455 -2.78981,-0.61704 -3.77711,-1.11464c-1.99643,-0.92869 -3.42435,-1.88203 -4.28379,-2.85997z" fill="#746000" stroke-width="1" stroke-linecap="square"/><path d="M285.86664,223.47251c-0.46675,-4.24436 0.63401,-7.90919 3.3023,-10.99452c2.66764,-3.09108 5.91056,-4.84656 9.72876,-5.26644c3.82395,-0.42051 7.35551,0.58125 10.59466,3.0053c3.23852,2.41828 5.09116,5.7496 5.55789,9.99397c0.32298,2.93706 -0.15289,5.63267 -1.42759,8.08681c-1.26958,2.44773 -2.93361,4.32977 -4.99206,5.64607c-2.0527,1.31567 -4.24812,2.10208 -6.58626,2.35919c-2.33238,0.25648 -4.65866,-0.06766 -6.97886,-0.9724c-2.32082,-0.9105 -4.35628,-2.4061 -6.10634,-4.48682c-1.75008,-2.0807 -2.78091,-4.53777 -3.09249,-7.37118zM297.36773,226.05465c1.22951,0.73908 2.42879,1.04435 3.59787,0.91579c1.16907,-0.12857 2.28681,-0.69737 3.35322,-1.70641c1.07154,-1.01544 1.51201,-2.38989 1.32138,-4.12334c-0.19062,-1.73345 -0.88246,-2.96297 -2.07552,-3.68857c-1.18793,-0.732 -2.41826,-1.02803 -3.69099,-0.88807c-1.27274,0.13996 -2.41031,0.71385 -3.41274,1.7217c-0.99731,1.00145 -1.4016,2.36026 -1.21287,4.07644c0.18873,1.71617 0.89528,2.94701 2.11966,3.69247z" fill="#746000" stroke-width="1" stroke-linecap="square"/><path d="M223.16274,244.39151c-3.57056,0.39264 -6.68238,-0.63488 -9.33544,-3.08257c-2.64731,-2.44833 -4.18501,-5.61903 -4.61313,-9.51208l-1.0212,-9.28634c-0.09373,-0.85232 -0.1359,-1.47427 -0.12649,-1.86582c0.00877,-0.39732 0.10784,-0.87449 0.2972,-1.43155c0.39014,-1.01045 1.71686,-1.64013 3.98013,-1.88901c2.48211,-0.27295 4.00715,0.23837 4.57511,1.53398c0.27578,0.5467 0.48175,1.43915 0.61791,2.67732l1.0212,9.28634c0.15959,1.45125 0.699,2.54018 1.6182,3.26675c0.92434,0.72019 2.08335,1.00365 3.47702,0.85039c1.39943,-0.15389 2.48452,-0.70162 3.25527,-1.64318c0.77587,-0.94796 1.08782,-2.113 0.93583,-3.49516l-1.03354,-9.39863c-0.08929,-0.81201 -0.1302,-1.42243 -0.1227,-1.83126c0.01262,-0.41522 0.13091,-0.90326 0.35483,-1.46412c0.35939,-0.9721 1.67072,-1.58259 3.934,-1.83147c2.22872,-0.24509 3.64327,0.08313 4.24368,0.98465c0.30589,0.50259 0.50724,0.95548 0.60404,1.35867c0.10192,0.39679 0.19784,1.00408 0.28778,1.82186l2.06614,18.78861c0.0855,0.77745 0.12194,1.3738 0.1093,1.78903c-0.00751,0.40882 -0.12511,0.8764 -0.35284,1.40269c-0.4285,0.9797 -1.73984,1.59019 -3.93401,1.83148c-2.15961,0.23749 -3.53391,-0.0427 -4.12291,-0.84056c-0.41716,-0.5603 -0.67261,-1.26661 -0.76633,-2.11893c-0.11611,0.26923 -0.39647,0.66143 -0.84107,1.17661c-0.44524,0.50943 -0.88049,0.95072 -1.30573,1.32387c-1.11813,0.90982 -2.38555,1.44263 -3.80225,1.59841z" fill="#746000" stroke-width="1" stroke-linecap="square"/><path d="M201.12808,228.12229l-3.47912,0.16401l0.80556,7.3254c0.10513,0.95598 0.33085,1.6306 0.67718,2.02384c0.35145,0.38684 0.94184,0.53467 1.77112,0.44347c0.83506,-0.09183 1.47458,-0.13301 1.91859,-0.12356c0.44914,0.00307 0.93686,0.11847 1.46316,0.34618c0.86843,0.37079 1.40746,1.50929 1.61709,3.41551c0.24573,2.23448 -0.09946,3.65381 -1.03554,4.25801c-0.50835,0.30653 -0.96412,0.50819 -1.36731,0.60499c-0.39742,0.09615 -0.98488,0.18699 -1.76233,0.27249c-3.67998,0.40468 -6.56747,-0.12003 -8.66247,-1.57411c-2.095,-1.45408 -3.36035,-4.16221 -3.79606,-8.12438l-0.8635,-7.85235c-0.65664,0.17712 -1.37658,0.30875 -2.1598,0.39489c-0.77745,0.0855 -1.45539,-0.14304 -2.03381,-0.68561c-0.57841,-0.54258 -0.94741,-1.53949 -1.10701,-2.99074c-0.15959,-1.45125 -0.18623,-2.51497 -0.07989,-3.19113c0.10633,-0.67616 0.30235,-1.17274 0.58807,-1.48975c0.51371,-0.52278 1.19674,-0.83104 2.04906,-0.92476l1.76871,0.02407l-0.60131,-5.46814c-0.08929,-0.81201 -0.12925,-1.41379 -0.11985,-1.80535c0.01453,-0.39794 0.13756,-0.84279 0.36908,-1.33454c0.3632,-0.93755 1.67642,-1.53077 3.93969,-1.77965c2.40724,-0.26472 3.91342,0.23411 4.51854,1.49649c0.23483,0.54538 0.42034,1.43716 0.5565,2.67533l0.57187,5.20035c1.54485,-0.31559 2.71463,-0.5171 3.50937,-0.60449c0.79475,-0.0874 1.39972,-0.12478 1.81493,-0.11216c0.41458,0.00687 0.9023,0.12227 1.46316,0.34618c0.96634,0.36003 1.57394,1.67168 1.82283,3.93494c0.24509,2.22872 -0.08026,3.64296 -0.97602,4.24272c-0.50835,0.30653 -0.96381,0.51108 -1.36636,0.61363c-0.39742,0.09615 -1.00214,0.18889 -1.81416,0.27818z" fill="#746000" stroke-width="1" stroke-linecap="square"/><path d="M319.97403,231.32364c-0.71428,-0.34694 -1.12207,-0.98112 -1.2234,-1.90256c-0.10133,-0.92143 0.4157,-2.39465 1.55109,-4.41962c0.32575,-0.642 0.92054,-1.01048 1.78439,-1.10548c0.8696,-0.09563 2.09512,0.20966 3.67656,0.91587c1.5808,0.70045 2.97303,0.98451 4.17665,0.85214c2.15385,-0.23685 3.18423,-0.77857 3.09114,-1.62513c-0.0741,-0.67379 -1.31203,-1.03892 -3.71379,-1.09539c-2.26419,-0.07741 -4.56714,-0.6664 -6.90886,-1.76696c-1.0954,-0.52652 -2.05472,-1.43228 -2.87798,-2.71731c-0.82388,-1.29077 -1.33906,-2.87488 -1.54552,-4.7523c-0.6143,-5.5862 2.91691,-8.80138 10.5936,-9.64557c2.51667,-0.27675 5.16574,0.04102 7.94723,0.95333c1.306,0.42759 2.00587,1.06755 2.09959,1.91987c0.09309,0.84657 -0.18389,1.932 -0.83095,3.2563c-0.6413,1.32367 -1.36794,2.03016 -2.17997,2.11945c-0.42616,0.04686 -1.24428,-0.13129 -2.45433,-0.53445c-1.2043,-0.4038 -2.48024,-0.53159 -3.82784,-0.38341c-2.08474,0.22926 -3.08436,0.73261 -2.99888,1.51007c0.11653,1.05964 1.39582,1.61548 3.8379,1.66751c2.35961,-0.00885 4.69699,0.41607 7.01211,1.27474c1.07956,0.38254 2.03201,1.14627 2.85733,2.29118c0.82533,1.14491 1.33932,2.63879 1.54198,4.48166c0.20202,1.83711 0.02843,3.43867 -0.52079,4.80467c-0.54921,1.36601 -1.40777,2.43671 -2.57565,3.21211c-2.14295,1.34308 -4.92195,2.20241 -8.33702,2.57796c-3.41507,0.37555 -6.8066,-0.25402 -10.1746,-1.88868z" fill="#746000" stroke-width="1" stroke-linecap="square"/><path d="M272.10047,215.53526c-0.08992,-0.81776 -0.13114,-1.43108 -0.12365,-1.8399c0.00687,-0.41458 0.10499,-0.90041 0.29436,-1.45746c0.39394,-0.9759 1.72254,-1.58829 3.98582,-1.83718c1.6989,-0.18683 2.93577,-0.01684 3.71062,0.50996c0.65915,0.42878 1.06237,1.15381 1.20965,2.1751c0.07318,0.3475 0.14682,0.85814 0.22092,1.53195l2.04239,18.57266c0.08992,0.81776 0.13145,1.43395 0.12458,1.84854c-0.00751,0.40882 -0.12609,0.89398 -0.35577,1.45547c-0.35362,0.97147 -1.66496,1.58196 -3.934,1.83147c-2.22872,0.24509 -3.64327,-0.08313 -4.24368,-0.98465c-0.30589,-0.50259 -0.50598,-0.94397 -0.60024,-1.32412c-0.0949,-0.3859 -0.1892,-1.00503 -0.28294,-1.85735z" fill="#746000" stroke-width="1" stroke-linecap="square"/><path d="M279.74236,204.72799c-0.20855,0.54169 -0.63801,0.95611 -1.28837,1.24329c-0.64461,0.28654 -1.52553,0.49125 -2.64276,0.6141c-1.11148,0.12222 -2.01583,0.11385 -2.71307,-0.02515c-0.69723,-0.13898 -1.20743,-0.45883 -1.53061,-0.95952c-0.32318,-0.50069 -0.53285,-0.94975 -0.629,-1.34718c-0.09679,-0.40318 -0.18984,-1.01079 -0.27914,-1.8228c-0.08992,-0.81776 -0.13114,-1.43108 -0.12365,-1.8399c0.00687,-0.41458 0.1069,-0.88313 0.30006,-1.40563c0.39014,-1.01045 1.71685,-1.64012 3.98012,-1.889c2.23448,-0.24573 3.63177,0.0844 4.19185,0.99036c0.34621,0.49817 0.56771,0.94883 0.6645,1.35202c0.09615,0.39742 0.1892,1.00503 0.27914,1.8228c0.08929,0.81201 0.13051,1.42531 0.12365,1.8399c-0.00751,0.40882 -0.1184,0.8844 -0.33271,1.42672z" fill="#746000" stroke-width="1" stroke-linecap="square"/><path d="M308.59611,123.93555c0.32421,-0.81206 0.95716,-1.42599 1.89882,-1.84178c0.94166,-0.4158 2.15459,-0.70531 3.63881,-0.86852c1.48422,-0.16322 2.67414,-0.16326 3.56975,-0.00013c0.90395,0.1622 1.60494,0.39736 2.10298,0.70548c0.49804,0.30811 0.91297,0.78149 1.24482,1.42014c0.35385,0.83876 0.62936,2.1545 0.82649,3.94725l4.69016,42.65048c0.12928,1.1757 0.18478,2.06415 0.16651,2.66534c-0.00995,0.60028 -0.17702,1.30644 -0.50124,2.11849c-0.56488,1.46303 -2.48581,2.3747 -5.76276,2.73506c-3.58548,0.39428 -5.79081,-0.32103 -6.61599,-2.14599c-0.40479,-0.84159 -0.70577,-2.15877 -0.90291,-3.9515l-1.71515,-15.59681l-20.36216,2.23917l1.72339,15.67186c0.12928,1.1757 0.18896,2.06369 0.17901,2.66397c-0.00995,0.60028 -0.17702,1.30644 -0.50124,2.11849c-0.56488,1.46303 -2.48997,2.37517 -5.77526,2.73643c-3.58548,0.39428 -5.78664,-0.3215 -6.60348,-2.14736c-0.40479,-0.84159 -0.70577,-2.15877 -0.90291,-3.9515l-4.69016,-42.65049c-0.12928,-1.1757 -0.18896,-2.06368 -0.17902,-2.66396c0.00995,-0.60028 0.17702,-1.30644 0.50124,-2.11849c0.56488,-1.46303 2.48997,-2.37517 5.77527,-2.73643c3.58548,-0.39428 5.81627,0.32246 6.6924,2.15024c0.34551,0.83967 0.61683,2.15588 0.81398,3.94862l1.72477,15.68436l20.36216,-2.23917l-1.73303,-15.75942c-0.12928,-1.1757 -0.18896,-2.06368 -0.17902,-2.66396c0.01828,-0.6012 0.18953,-1.30781 0.51376,-2.11986z" fill="#746000" stroke-width="1" stroke-linecap="square"/><path d="M78.15499,196.17713c-1.50551,-1.48851 -2.33025,-2.88733 -2.4742,-4.19645c-0.14396,-1.30911 0.76643,-3.16035 2.73117,-5.5537c1.14097,-1.36603 2.42855,-2.12789 3.86275,-2.2856c1.43419,-0.15771 3.57613,0.90215 6.42584,3.17959c0.81246,0.78833 1.92559,1.50984 3.33941,2.16452c1.42123,0.64543 2.6947,0.90625 3.82036,0.78245c4.76952,-0.52449 6.94017,-2.73373 6.51195,-6.62773c-0.12928,-1.1757 -0.89204,-2.08765 -2.28828,-2.73582c-1.39714,-0.65652 -3.09101,-1.05677 -5.08161,-1.20075c-1.98225,-0.1449 -4.14261,-0.48964 -6.48106,-1.0342c-2.33846,-0.54456 -4.5424,-1.24739 -6.61186,-2.10847c-2.06111,-0.86199 -3.8746,-2.38837 -5.44046,-4.57914c-1.56586,-2.19077 -2.52897,-4.92463 -2.88932,-8.20159c-0.49515,-4.50269 0.74898,-8.61434 3.73237,-12.33496c2.99081,-3.72986 7.38378,-5.91344 13.17892,-6.55072c3.06851,-0.33744 5.91373,-0.24946 8.53569,0.26394c2.6303,0.51247 4.47399,1.1241 5.5311,1.83489l2.08707,1.25155c1.74749,1.31 2.67764,2.47781 2.79042,3.50343c0.11279,1.02562 -0.34512,2.50218 -1.37371,4.42971c-1.46121,2.75151 -3.11319,4.22858 -4.95597,4.43123c-1.07563,0.11828 -2.4657,-0.24365 -4.1702,-1.08579c-0.16201,-0.09189 -0.48644,-0.31782 -0.9733,-0.67781c-0.47851,-0.3609 -0.91127,-0.65088 -1.29825,-0.86994c-1.149,-0.54878 -2.55733,-0.73148 -4.22499,-0.54809c-1.65932,0.18248 -2.9953,0.73446 -4.00794,1.65598c-1.01355,0.91318 -1.44285,2.07435 -1.28787,3.48352c0.15497,1.40918 0.93097,2.48001 2.32803,3.21248c1.40448,0.72322 3.09509,1.13228 5.07185,1.22715c1.98418,0.08562 4.16225,0.32291 6.53423,0.71188c2.38031,0.38806 4.59277,0.93804 6.63738,1.64994c2.05202,0.70266 3.85405,2.1248 5.40606,4.26645c1.55944,2.1324 2.52255,4.86626 2.88932,8.20159c0.36586,3.32699 0.02111,6.33126 -1.03427,9.01282c-1.04704,2.68063 -2.5701,4.83134 -4.56917,6.45206c-3.85448,3.16659 -8.13729,5.00893 -12.84843,5.52699c-2.40977,0.26499 -4.72239,0.22394 -6.93787,-0.12317c-2.21639,-0.35545 -4.03934,-0.89341 -5.46882,-1.61389c-2.89059,-1.34464 -4.95807,-2.72496 -6.20242,-4.14091z" fill="#746000" stroke-width="1" stroke-linecap="square"/><path d="M355.76738,137.02744c-0.00691,-2.90231 1.85742,-4.55886 5.59298,-4.96964c2.00119,-0.22007 3.50237,-0.22903 4.50355,-0.02687c1.00951,0.20124 1.74822,0.66433 2.21615,1.38926c0.47626,0.72403 0.78446,1.37792 0.92461,1.96169c0.13923,0.57542 0.27394,1.45517 0.40415,2.63921l2.95713,26.89106c0.12928,1.1757 0.18896,2.06369 0.17902,2.66397c-0.00995,0.60028 -0.15201,1.30369 -0.4262,2.11024c-0.57039,1.41299 -2.25224,2.27307 -5.04558,2.58024c-2.79333,0.30717 -4.70334,0.16699 -5.73001,-0.42057c-1.01834,-0.58846 -1.68007,-1.54106 -1.98521,-2.85777c-1.59387,2.92644 -4.6088,4.63357 -9.04478,5.12138c-4.42765,0.4869 -8.76079,-1.0831 -12.99945,-4.70997c-4.23123,-3.63613 -6.64118,-8.13079 -7.22986,-13.48399c-0.58868,-5.3532 0.8013,-10.24885 4.16995,-14.68697c3.37607,-4.44737 7.34463,-6.92184 11.90569,-7.4234c1.74271,-0.19165 3.36508,-0.05779 4.86713,0.40153c1.50204,0.45932 2.5622,0.92925 3.18047,1.40981c0.62569,0.47129 1.14577,0.94156 1.56026,1.41076zM343.54181,154.5497c0.18613,1.69268 1.01683,3.14569 2.49208,4.35904c1.48359,1.21243 3.17178,1.71457 5.06458,1.50643c1.90114,-0.20906 3.40098,-1.07445 4.4995,-2.59614c1.10687,-1.52262 1.56861,-3.11776 1.38523,-4.78542c-0.18339,-1.66766 -0.95846,-3.15211 -2.32523,-4.45334c-1.35843,-1.30215 -3.05075,-1.84181 -5.07698,-1.619c-2.01787,0.22189 -3.5775,1.11918 -4.67887,2.69182c-1.09304,1.57172 -1.54648,3.20393 -1.36033,4.89662z" fill="#746000" stroke-width="1" stroke-linecap="square"/><path d="M140.9901,156.44324c5.11972,-0.563 9.59472,0.91544 13.42495,4.43532c3.83858,3.51897 6.0678,8.09679 6.68766,13.73349l1.48682,13.52058c0.13021,1.18404 0.19034,2.0762 0.1804,2.67647c-0.01085,0.59193 -0.1784,1.29393 -0.50261,2.10599c-0.52036,1.40748 -2.41901,2.29141 -5.69597,2.65176c-3.12687,0.34385 -5.14723,-0.1091 -6.06106,-1.35887c-0.49294,-0.7222 -0.81456,-1.38306 -0.96488,-1.98258c-0.1429,-0.60879 -0.28221,-1.53022 -0.41791,-2.76428l-1.47858,-13.44553c-0.23107,-2.10125 -0.99911,-3.67509 -2.30409,-4.7215c-1.3059,-1.05474 -2.8719,-1.48173 -4.69799,-1.28092c-1.81775,0.19989 -3.35773,0.93045 -4.61994,2.19166c-1.25478,1.25195 -1.9103,2.58147 -1.96655,3.98856l1.63811,14.89639c0.13021,1.18404 0.19034,2.0762 0.1804,2.67647c-0.01085,0.59193 -0.18257,1.29439 -0.51512,2.10736c-0.51202,1.40657 -2.41067,2.29048 -5.69596,2.65176c-3.22692,0.35485 -5.27504,-0.12036 -6.14436,-1.42567c-0.44291,-0.7277 -0.7326,-1.36675 -0.86908,-1.91717c-0.13739,-0.55875 -0.27394,-1.45517 -0.40965,-2.68923l-5.05327,-45.95246c-0.12928,-1.1757 -0.1885,-2.05953 -0.17765,-2.65145c0.00995,-0.60028 0.15476,-1.27867 0.43445,-2.0352c0.56488,-1.46303 2.48581,-2.37471 5.76276,-2.73506c3.23527,-0.35578 5.25838,0.1222 6.0693,1.43392c0.50128,0.72127 0.822,1.3738 0.96213,1.95756c0.13923,0.57542 0.27348,1.45099 0.40278,2.6267l1.86782,16.98516c2.21602,-3.40838 5.04171,-5.30144 8.47709,-5.67922z" fill="#746000" stroke-width="1" stroke-linecap="square"/><path d="M271.65674,147.28956c0.10178,0.92555 -0.00669,1.81937 -0.3254,2.68145c-0.31871,0.86208 -0.47533,1.31814 -0.46982,1.36818l-15.18415,47.25382c-0.30129,1.02051 -0.56573,1.80068 -0.79329,2.34049c-0.22757,0.53981 -0.62465,1.07295 -1.19126,1.59942c-0.55735,0.53388 -1.29881,0.85172 -2.22436,0.9535c-0.92555,0.10178 -2.32688,-0.13232 -4.20397,-0.7023c-3.16518,-1.00219 -4.8491,-2.42468 -5.05174,-4.26745c-0.13571,-1.23406 1.67902,-7.37056 5.4442,-18.4095l-18.12724,-24.05824c-1.21175,-1.5799 -1.86256,-2.77842 -1.95243,-3.59557c-0.18063,-1.64265 1.02289,-3.43751 3.61057,-5.38458c1.63084,-1.20891 2.92987,-1.86655 3.89713,-1.97292c0.97559,-0.10729 1.79435,0.00943 2.45632,0.35017c0.66196,0.34072 1.15437,0.71275 1.47722,1.11609c0.33119,0.40242 2.00261,2.63221 5.01426,6.68938c3.01909,4.04792 5.8847,7.81312 8.59687,11.29561c0.16862,-0.84558 1.20527,-4.15802 3.10991,-9.9373c1.90372,-5.78762 2.92343,-8.87034 3.05911,-9.24815c0.14401,-0.37872 0.39189,-0.84903 0.74362,-1.41094c0.57171,-0.94054 1.45791,-1.47683 2.65862,-1.60886c1.20906,-0.13295 2.67017,0.06925 4.38333,0.60663c3.17352,1.00127 4.86435,2.44831 5.07249,4.34111z" fill="#746000" stroke-width="1" stroke-linecap="square"/><path d="M207.1361,149.01744c5.11972,-0.563 9.60026,0.92747 13.44159,4.47145c3.84134,3.54398 6.07192,8.13432 6.69178,13.77102l1.48682,13.52058c0.13021,1.18404 0.18616,2.07665 0.16788,2.67784c-0.01085,0.59193 -0.15612,1.26616 -0.43582,2.0227c-0.56488,1.46303 -2.48581,2.3747 -5.76276,2.73506c-3.63551,0.39978 -5.84083,-0.31554 -6.61599,-2.14599c-0.40479,-0.84159 -0.70301,-2.13375 -0.89465,-3.87645l-1.48682,-13.52058c-0.23107,-2.10125 -1.01578,-3.67326 -2.35413,-4.716c-1.33093,-1.052 -3.0095,-1.46659 -5.0357,-1.24378c-2.01787,0.22189 -3.5885,1.01911 -4.71188,2.39164c-1.11596,1.36328 -1.5639,3.04551 -1.34384,5.0467l1.49508,13.59563c0.13021,1.18404 0.19034,2.0762 0.1804,2.67647c-0.01085,0.59193 -0.18531,1.26938 -0.52338,2.03232c-0.50652,1.4566 -2.40243,2.36553 -5.68772,2.72681c-3.22692,0.35485 -5.27504,-0.12036 -6.14435,-1.42566c-0.44291,-0.7277 -0.73444,-1.38343 -0.87459,-1.96719c-0.14015,-0.58377 -0.27487,-1.46351 -0.40415,-2.63921l-2.99153,-27.20375c-0.12379,-1.12568 -0.18025,-1.98448 -0.1694,-2.57641c0.00995,-0.60028 0.17978,-1.28142 0.50949,-2.04344c0.57589,-1.36296 2.4773,-2.22186 5.70422,-2.57672c3.12687,-0.34385 5.11349,0.03264 5.95987,1.12949c0.61326,0.81867 0.98728,1.84088 1.12206,3.06661c0.16069,-0.38056 0.56336,-0.93963 1.20802,-1.67721c0.64374,-0.74593 1.27622,-1.36402 1.89743,-1.85428c1.61343,-1.36734 3.47077,-2.16655 5.57202,-2.39762z" fill="#746000" stroke-width="1" stroke-linecap="square"/><path d="M399.82669,141.60044l-5.03737,0.23747l1.16636,10.60633c0.15221,1.38416 0.47904,2.36091 0.9805,2.93027c0.50887,0.5601 1.36366,0.77413 2.56438,0.64209c1.20906,-0.13295 2.13502,-0.19258 2.7779,-0.1789c0.65031,0.00443 1.35646,0.17152 2.11849,0.50124c1.2574,0.53686 2.03784,2.18528 2.34135,4.94527c0.35578,3.23527 -0.14401,5.29031 -1.49935,6.16511c-0.73604,0.44382 -1.39593,0.73581 -1.9797,0.87595c-0.57542,0.13923 -1.42597,0.27074 -2.55164,0.39453c-5.32819,0.58593 -9.50894,-0.17378 -12.54225,-2.27913c-3.03332,-2.10535 -4.86539,-6.0264 -5.49626,-11.76316l-1.25025,-11.36929c-0.95074,0.25646 -1.99312,0.44703 -3.12712,0.57174c-1.12568,0.12379 -2.10725,-0.20711 -2.94471,-0.99268c-0.83748,-0.78558 -1.37174,-2.229 -1.60282,-4.33025c-0.23107,-2.10125 -0.26963,-3.64138 -0.11568,-4.62038c0.15396,-0.97899 0.43778,-1.698 0.85145,-2.157c0.7438,-0.75693 1.73274,-1.20324 2.96681,-1.33895l2.5609,0.03484l-0.87064,-7.91723c-0.12928,-1.1757 -0.18712,-2.04702 -0.17352,-2.61394c0.02102,-0.57618 0.19917,-1.22026 0.53438,-1.93226c0.52586,-1.35746 2.42727,-2.21637 5.70422,-2.57672c3.48541,-0.38329 5.66619,0.33897 6.54232,2.16675c0.34,0.78965 0.60858,2.08084 0.80573,3.87357l0.828,7.52951c2.23676,-0.45695 3.93048,-0.74869 5.08117,-0.87523c1.15068,-0.12654 2.02663,-0.18067 2.62782,-0.16239c0.60028,0.00995 1.30644,0.17702 2.11849,0.50124c1.39915,0.52128 2.2789,2.42038 2.63926,5.69734c0.35485,3.22692 -0.1162,5.27459 -1.41316,6.14298c-0.73604,0.44382 -1.39548,0.73997 -1.97833,0.88846c-0.57542,0.13923 -1.45099,0.27348 -2.6267,0.40278z" fill="#746000" stroke-width="1" stroke-linecap="square"/><path d="M165.77105,160.4146c-0.13021,-1.18404 -0.18988,-2.07203 -0.17902,-2.66397c0.00995,-0.60028 0.15201,-1.30369 0.4262,-2.11023c0.57039,-1.41299 2.49405,-2.29966 5.77102,-2.66002c2.4598,-0.27049 4.25065,-0.02438 5.37255,0.73836c0.95438,0.62082 1.53819,1.67059 1.75144,3.14931c0.10595,0.50313 0.21259,1.24249 0.31986,2.21807l2.95713,26.89106c0.13021,1.18404 0.19034,2.0762 0.1804,2.67647c-0.01085,0.59193 -0.18257,1.29439 -0.51512,2.10736c-0.51202,1.40657 -2.41067,2.29048 -5.69597,2.65176c-3.22692,0.35485 -5.27504,-0.12036 -6.14435,-1.42566c-0.44291,-0.7277 -0.7326,-1.36675 -0.86908,-1.91717c-0.13739,-0.55875 -0.27394,-1.45517 -0.40965,-2.68923z" fill="#746000" stroke-width="1" stroke-linecap="square"/><path d="M176.83562,144.76693c-0.30196,0.78429 -0.92376,1.38434 -1.86541,1.80013c-0.93331,0.41488 -2.20879,0.71127 -3.82642,0.88916c-1.60929,0.17696 -2.9187,0.16484 -3.92821,-0.0364c-1.00951,-0.20124 -1.74822,-0.66433 -2.21615,-1.38926c-0.46792,-0.72494 -0.7715,-1.37514 -0.91073,-1.95056c-0.14015,-0.58377 -0.27487,-1.46351 -0.40415,-2.63921c-0.13021,-1.18404 -0.18988,-2.07203 -0.17902,-2.66396c0.00995,-0.60028 0.15476,-1.27867 0.43445,-2.0352c0.56488,-1.46303 2.48581,-2.37471 5.76276,-2.73506c3.23527,-0.35578 5.25838,0.1222 6.0693,1.43392c0.50128,0.72127 0.822,1.3738 0.96213,1.95756c0.13923,0.57542 0.27394,1.45517 0.40415,2.63921c0.12928,1.1757 0.18896,2.06369 0.17902,2.66397c-0.01085,0.59193 -0.17143,1.2805 -0.48172,2.06571z" fill="#746000" stroke-width="1" stroke-linecap="square"/></g></g></g></svg>